<svg width="257" height="256" viewBox="0 0 257 256" fill="none" xmlns="http://www.w3.org/2000/svg">
<path d="M66.1602 233.631H67.7686V243H66.1602V233.631ZM66.9512 231.987C66.7578 231.987 66.5762 231.964 66.4062 231.917C66.2422 231.87 66.1016 231.803 65.9844 231.715C65.8672 231.627 65.7734 231.524 65.7031 231.407C65.6387 231.29 65.6064 231.161 65.6064 231.021C65.6064 230.874 65.6416 230.736 65.7119 230.607C65.7822 230.479 65.876 230.367 65.9932 230.273C66.1162 230.18 66.2598 230.106 66.4238 230.054C66.5879 230.001 66.7637 229.975 66.9512 229.975C67.1387 229.975 67.3115 230.001 67.4697 230.054C67.6338 230.106 67.7744 230.18 67.8916 230.273C68.0146 230.367 68.1113 230.479 68.1816 230.607C68.252 230.736 68.2871 230.874 68.2871 231.021C68.2871 231.161 68.252 231.29 68.1816 231.407C68.1172 231.524 68.0264 231.627 67.9092 231.715C67.792 231.803 67.6514 231.87 67.4873 231.917C67.3232 231.964 67.1445 231.987 66.9512 231.987ZM66.1602 233.631H67.7686V243H66.1602V233.631ZM77.5859 236.751H76.0479C75.9541 236.171 75.7402 235.69 75.4062 235.31C75.0723 234.923 74.5361 234.729 73.7979 234.729C72.79 234.729 72.0693 235.222 71.6357 236.206C71.3545 236.845 71.2139 237.633 71.2139 238.57C71.2139 239.514 71.4131 240.308 71.8115 240.952C72.21 241.597 72.8369 241.919 73.6924 241.919C74.3486 241.919 74.8672 241.72 75.248 241.321C75.6348 240.917 75.9014 240.366 76.0479 239.669H77.5859C77.4102 240.917 76.9707 241.831 76.2676 242.411C75.5645 242.985 74.665 243.272 73.5693 243.272C72.3389 243.272 71.3574 242.824 70.625 241.928C69.8926 241.025 69.5264 239.9 69.5264 238.553C69.5264 236.9 69.9277 235.614 70.7305 234.694C71.5332 233.774 72.5557 233.314 73.7979 233.314C74.8584 233.314 75.7197 233.572 76.3818 234.088C77.0498 234.604 77.4512 235.491 77.5859 236.751ZM85.7158 238.236C85.7158 237.486 85.6074 236.842 85.3906 236.303C84.9805 235.266 84.2305 234.747 83.1406 234.747C82.0449 234.747 81.2949 235.295 80.8906 236.391C80.6738 236.977 80.5654 237.721 80.5654 238.623C80.5654 239.35 80.6738 239.968 80.8906 240.478C81.3008 241.45 82.0508 241.937 83.1406 241.937C83.8789 241.937 84.4912 241.629 84.9775 241.014C85.4697 240.393 85.7158 239.467 85.7158 238.236ZM79.0449 233.631H80.583V234.879C80.8994 234.451 81.2451 234.12 81.6201 233.886C82.1533 233.534 82.7803 233.358 83.501 233.358C84.5674 233.358 85.4727 233.769 86.2168 234.589C86.9609 235.403 87.333 236.569 87.333 238.087C87.333 240.138 86.7969 241.603 85.7246 242.481C85.0449 243.038 84.2539 243.316 83.3516 243.316C82.6426 243.316 82.0479 243.161 81.5674 242.851C81.2861 242.675 80.9727 242.373 80.627 241.945V246.753H79.0449V233.631ZM96.6055 236.751H95.0674C94.9736 236.171 94.7598 235.69 94.4258 235.31C94.0918 234.923 93.5557 234.729 92.8174 234.729C91.8096 234.729 91.0889 235.222 90.6553 236.206C90.374 236.845 90.2334 237.633 90.2334 238.57C90.2334 239.514 90.4326 240.308 90.8311 240.952C91.2295 241.597 91.8564 241.919 92.7119 241.919C93.3682 241.919 93.8867 241.72 94.2676 241.321C94.6543 240.917 94.9209 240.366 95.0674 239.669H96.6055C96.4297 240.917 95.9902 241.831 95.2871 242.411C94.584 242.985 93.6846 243.272 92.5889 243.272C91.3584 243.272 90.377 242.824 89.6445 241.928C88.9121 241.025 88.5459 239.9 88.5459 238.553C88.5459 236.9 88.9473 235.614 89.75 234.694C90.5527 233.774 91.5752 233.314 92.8174 233.314C93.8779 233.314 94.7393 233.572 95.4014 234.088C96.0693 234.604 96.4707 235.491 96.6055 236.751ZM99.4795 243.044C99.2861 243.044 99.1045 243.021 98.9346 242.974C98.7705 242.927 98.6299 242.859 98.5127 242.771C98.3955 242.684 98.3018 242.581 98.2314 242.464C98.167 242.347 98.1348 242.218 98.1348 242.077C98.1348 241.931 98.1699 241.793 98.2402 241.664C98.3105 241.535 98.4043 241.424 98.5215 241.33C98.6445 241.236 98.7881 241.163 98.9521 241.11C99.1162 241.058 99.292 241.031 99.4795 241.031C99.667 241.031 99.8398 241.058 99.998 241.11C100.162 241.163 100.303 241.236 100.42 241.33C100.543 241.424 100.64 241.535 100.71 241.664C100.78 241.793 100.815 241.931 100.815 242.077C100.815 242.218 100.78 242.347 100.71 242.464C100.646 242.581 100.555 242.684 100.438 242.771C100.32 242.859 100.18 242.927 100.016 242.974C99.8516 243.021 99.6729 243.044 99.4795 243.044ZM103.936 230.713C104.305 230.174 105.017 229.904 106.071 229.904C106.171 229.904 106.273 229.907 106.379 229.913C106.484 229.919 106.604 229.928 106.739 229.939V231.381C106.575 231.369 106.455 231.363 106.379 231.363C106.309 231.357 106.241 231.354 106.177 231.354C105.696 231.354 105.409 231.48 105.315 231.732C105.222 231.979 105.175 232.611 105.175 233.631H106.739V234.879H105.157V243H103.593V234.879H102.283V233.631H103.593V232.154C103.616 231.498 103.73 231.018 103.936 230.713ZM114.685 238.14C114.685 237.261 114.544 236.546 114.263 235.995C113.817 235.128 113.05 234.694 111.96 234.694C110.993 234.694 110.29 235.063 109.851 235.802C109.411 236.54 109.191 237.431 109.191 238.474C109.191 239.476 109.411 240.311 109.851 240.979C110.29 241.646 110.987 241.98 111.942 241.98C112.991 241.98 113.709 241.585 114.096 240.794C114.488 239.997 114.685 239.112 114.685 238.14ZM116.337 238.096C116.337 239.613 115.968 240.867 115.229 241.857C114.491 242.848 113.346 243.343 111.793 243.343C110.498 243.343 109.47 242.906 108.708 242.033C107.946 241.154 107.565 239.977 107.565 238.5C107.565 236.918 107.967 235.658 108.77 234.721C109.572 233.783 110.65 233.314 112.004 233.314C113.217 233.314 114.242 233.719 115.08 234.527C115.918 235.336 116.337 236.525 116.337 238.096ZM119.809 233.587V239.836C119.809 240.316 119.885 240.709 120.037 241.014C120.318 241.576 120.843 241.857 121.61 241.857C122.712 241.857 123.462 241.365 123.86 240.381C124.077 239.854 124.186 239.13 124.186 238.21V233.587H125.768V243H124.273L124.291 241.611C124.086 241.969 123.831 242.271 123.526 242.517C122.923 243.009 122.19 243.255 121.329 243.255C119.987 243.255 119.073 242.807 118.587 241.91C118.323 241.43 118.191 240.788 118.191 239.985V233.587H119.809ZM128.246 233.587H129.749V234.923C130.194 234.372 130.666 233.977 131.164 233.736C131.662 233.496 132.216 233.376 132.825 233.376C134.161 233.376 135.063 233.842 135.532 234.773C135.79 235.283 135.919 236.013 135.919 236.962V243H134.311V237.067C134.311 236.493 134.226 236.03 134.056 235.679C133.774 235.093 133.265 234.8 132.526 234.8C132.151 234.8 131.844 234.838 131.604 234.914C131.17 235.043 130.789 235.301 130.461 235.688C130.197 235.998 130.024 236.32 129.942 236.654C129.866 236.982 129.828 237.454 129.828 238.069V243H128.246V233.587ZM141.966 241.954C142.698 241.954 143.299 241.641 143.768 241.014C144.242 240.381 144.479 239.476 144.479 238.298C144.479 237.108 144.236 236.229 143.75 235.661C143.264 235.087 142.663 234.8 141.948 234.8C141.151 234.8 140.504 235.104 140.006 235.714C139.514 236.323 139.268 237.22 139.268 238.403C139.268 239.411 139.481 240.255 139.909 240.935C140.337 241.614 141.022 241.954 141.966 241.954ZM143.46 233.877C143.741 234.053 144.061 234.36 144.418 234.8V230.045H145.938V243H144.515V241.69C144.146 242.271 143.709 242.689 143.205 242.947C142.701 243.205 142.124 243.334 141.474 243.334C140.425 243.334 139.517 242.895 138.749 242.016C137.981 241.131 137.598 239.956 137.598 238.491C137.598 237.12 137.946 235.934 138.644 234.932C139.347 233.924 140.349 233.42 141.649 233.42C142.37 233.42 142.974 233.572 143.46 233.877ZM151.186 241.972C151.742 241.972 152.281 241.843 152.803 241.585C153.682 241.157 154.121 240.457 154.121 239.484V238.21C153.928 238.333 153.679 238.436 153.374 238.518C153.069 238.6 152.771 238.658 152.478 238.693L151.52 238.816C150.945 238.893 150.515 239.013 150.228 239.177C149.741 239.452 149.498 239.892 149.498 240.495C149.498 240.952 149.665 241.312 149.999 241.576C150.333 241.84 150.729 241.972 151.186 241.972ZM153.33 237.296C153.693 237.249 153.937 237.097 154.06 236.839C154.13 236.698 154.165 236.496 154.165 236.232C154.165 235.693 153.972 235.304 153.585 235.063C153.204 234.817 152.656 234.694 151.941 234.694C151.115 234.694 150.529 234.917 150.184 235.362C149.99 235.608 149.864 235.975 149.806 236.461H148.329C148.358 235.301 148.733 234.495 149.454 234.044C150.181 233.587 151.021 233.358 151.977 233.358C153.084 233.358 153.983 233.569 154.675 233.991C155.36 234.413 155.703 235.069 155.703 235.96V241.383C155.703 241.547 155.735 241.679 155.8 241.778C155.87 241.878 156.014 241.928 156.23 241.928C156.301 241.928 156.38 241.925 156.468 241.919C156.556 241.907 156.649 241.893 156.749 241.875V243.044C156.503 243.114 156.315 243.158 156.187 243.176C156.058 243.193 155.882 243.202 155.659 243.202C155.114 243.202 154.719 243.009 154.473 242.622C154.344 242.417 154.253 242.127 154.2 241.752C153.878 242.174 153.415 242.54 152.812 242.851C152.208 243.161 151.543 243.316 150.816 243.316C149.943 243.316 149.229 243.053 148.672 242.525C148.121 241.992 147.846 241.327 147.846 240.53C147.846 239.657 148.118 238.98 148.663 238.5C149.208 238.02 149.923 237.724 150.808 237.612L153.33 237.296ZM158.621 230.959H160.221V233.587H161.724V234.879H160.221V241.022C160.221 241.351 160.332 241.57 160.555 241.682C160.678 241.746 160.883 241.778 161.17 241.778C161.246 241.778 161.328 241.778 161.416 241.778C161.504 241.772 161.606 241.764 161.724 241.752V243C161.542 243.053 161.352 243.091 161.152 243.114C160.959 243.138 160.748 243.149 160.52 243.149C159.781 243.149 159.28 242.962 159.017 242.587C158.753 242.206 158.621 241.714 158.621 241.11V234.879H157.347V233.587H158.621V230.959ZM163.314 233.631H164.923V243H163.314V233.631ZM164.105 231.987C163.912 231.987 163.73 231.964 163.561 231.917C163.396 231.87 163.256 231.803 163.139 231.715C163.021 231.627 162.928 231.524 162.857 231.407C162.793 231.29 162.761 231.161 162.761 231.021C162.761 230.874 162.796 230.736 162.866 230.607C162.937 230.479 163.03 230.367 163.147 230.273C163.271 230.18 163.414 230.106 163.578 230.054C163.742 230.001 163.918 229.975 164.105 229.975C164.293 229.975 164.466 230.001 164.624 230.054C164.788 230.106 164.929 230.18 165.046 230.273C165.169 230.367 165.266 230.479 165.336 230.607C165.406 230.736 165.441 230.874 165.441 231.021C165.441 231.161 165.406 231.29 165.336 231.407C165.271 231.524 165.181 231.627 165.063 231.715C164.946 231.803 164.806 231.87 164.642 231.917C164.478 231.964 164.299 231.987 164.105 231.987ZM163.314 233.631H164.923V243H163.314V233.631ZM173.8 238.14C173.8 237.261 173.659 236.546 173.378 235.995C172.933 235.128 172.165 234.694 171.075 234.694C170.108 234.694 169.405 235.063 168.966 235.802C168.526 236.54 168.307 237.431 168.307 238.474C168.307 239.476 168.526 240.311 168.966 240.979C169.405 241.646 170.103 241.98 171.058 241.98C172.106 241.98 172.824 241.585 173.211 240.794C173.604 239.997 173.8 239.112 173.8 238.14ZM175.452 238.096C175.452 239.613 175.083 240.867 174.345 241.857C173.606 242.848 172.461 243.343 170.908 243.343C169.613 243.343 168.585 242.906 167.823 242.033C167.062 241.154 166.681 239.977 166.681 238.5C166.681 236.918 167.082 235.658 167.885 234.721C168.688 233.783 169.766 233.314 171.119 233.314C172.332 233.314 173.357 233.719 174.195 234.527C175.033 235.336 175.452 236.525 175.452 238.096ZM177.342 233.587H178.845V234.923C179.29 234.372 179.762 233.977 180.26 233.736C180.758 233.496 181.312 233.376 181.921 233.376C183.257 233.376 184.159 233.842 184.628 234.773C184.886 235.283 185.015 236.013 185.015 236.962V243H183.406V237.067C183.406 236.493 183.321 236.03 183.151 235.679C182.87 235.093 182.36 234.8 181.622 234.8C181.247 234.8 180.939 234.838 180.699 234.914C180.266 235.043 179.885 235.301 179.557 235.688C179.293 235.998 179.12 236.32 179.038 236.654C178.962 236.982 178.924 237.454 178.924 238.069V243H177.342V233.587Z" fill="#4C83C3"/>
<rect x="50.5" y="218.5" width="151" height="37" rx="9.5" stroke="#4C83C3"/>
<path d="M111.204 167.587H112.707V169.213C112.83 168.896 113.132 168.513 113.612 168.062C114.093 167.604 114.646 167.376 115.273 167.376C115.303 167.376 115.353 167.379 115.423 167.385C115.493 167.391 115.613 167.402 115.783 167.42V169.09C115.689 169.072 115.602 169.061 115.52 169.055C115.443 169.049 115.358 169.046 115.265 169.046C114.468 169.046 113.855 169.304 113.428 169.819C113 170.329 112.786 170.918 112.786 171.586V177H111.204V167.587ZM123.632 172.14C123.632 171.261 123.491 170.546 123.21 169.995C122.765 169.128 121.997 168.694 120.907 168.694C119.94 168.694 119.237 169.063 118.798 169.802C118.358 170.54 118.139 171.431 118.139 172.474C118.139 173.476 118.358 174.311 118.798 174.979C119.237 175.646 119.935 175.98 120.89 175.98C121.938 175.98 122.656 175.585 123.043 174.794C123.436 173.997 123.632 173.112 123.632 172.14ZM125.284 172.096C125.284 173.613 124.915 174.867 124.177 175.857C123.438 176.848 122.293 177.343 120.74 177.343C119.445 177.343 118.417 176.906 117.655 176.033C116.894 175.154 116.513 173.977 116.513 172.5C116.513 170.918 116.914 169.658 117.717 168.721C118.52 167.783 119.598 167.314 120.951 167.314C122.164 167.314 123.189 167.719 124.027 168.527C124.865 169.336 125.284 170.525 125.284 172.096ZM134.592 170.751H133.054C132.96 170.171 132.746 169.69 132.412 169.31C132.078 168.923 131.542 168.729 130.804 168.729C129.796 168.729 129.075 169.222 128.642 170.206C128.36 170.845 128.22 171.633 128.22 172.57C128.22 173.514 128.419 174.308 128.817 174.952C129.216 175.597 129.843 175.919 130.698 175.919C131.354 175.919 131.873 175.72 132.254 175.321C132.641 174.917 132.907 174.366 133.054 173.669H134.592C134.416 174.917 133.977 175.831 133.273 176.411C132.57 176.985 131.671 177.272 130.575 177.272C129.345 177.272 128.363 176.824 127.631 175.928C126.898 175.025 126.532 173.9 126.532 172.553C126.532 170.9 126.934 169.614 127.736 168.694C128.539 167.774 129.562 167.314 130.804 167.314C131.864 167.314 132.726 167.572 133.388 168.088C134.056 168.604 134.457 169.491 134.592 170.751ZM136.139 164.089H137.659V171.586L141.72 167.587H143.741L140.138 171.111L143.943 177H141.922L138.986 172.254L137.659 173.467V177H136.139V164.089ZM151.054 167.587H152.803C152.58 168.19 152.085 169.567 151.317 171.718C150.743 173.335 150.263 174.653 149.876 175.673C148.962 178.075 148.317 179.54 147.942 180.067C147.567 180.595 146.923 180.858 146.009 180.858C145.786 180.858 145.613 180.85 145.49 180.832C145.373 180.814 145.227 180.782 145.051 180.735V179.294C145.326 179.37 145.525 179.417 145.648 179.435C145.771 179.452 145.88 179.461 145.974 179.461C146.267 179.461 146.48 179.411 146.615 179.312C146.756 179.218 146.873 179.101 146.967 178.96C146.996 178.913 147.102 178.673 147.283 178.239C147.465 177.806 147.597 177.483 147.679 177.272L144.198 167.587H145.991L148.514 175.251L151.054 167.587ZM159.184 167.587H160.748V168.923C161.123 168.46 161.463 168.123 161.768 167.912C162.289 167.555 162.881 167.376 163.543 167.376C164.293 167.376 164.896 167.561 165.354 167.93C165.611 168.141 165.846 168.451 166.057 168.861C166.408 168.357 166.821 167.985 167.296 167.745C167.771 167.499 168.304 167.376 168.896 167.376C170.161 167.376 171.022 167.833 171.479 168.747C171.726 169.239 171.849 169.901 171.849 170.733V177H170.205V170.461C170.205 169.834 170.047 169.403 169.73 169.169C169.42 168.935 169.039 168.817 168.588 168.817C167.967 168.817 167.431 169.025 166.979 169.441C166.534 169.857 166.312 170.552 166.312 171.524V177H164.703V170.856C164.703 170.218 164.627 169.752 164.475 169.459C164.234 169.02 163.786 168.8 163.13 168.8C162.532 168.8 161.987 169.031 161.495 169.494C161.009 169.957 160.766 170.795 160.766 172.008V177H159.184V167.587ZM180.655 172.14C180.655 171.261 180.515 170.546 180.233 169.995C179.788 169.128 179.021 168.694 177.931 168.694C176.964 168.694 176.261 169.063 175.821 169.802C175.382 170.54 175.162 171.431 175.162 172.474C175.162 173.476 175.382 174.311 175.821 174.979C176.261 175.646 176.958 175.98 177.913 175.98C178.962 175.98 179.68 175.585 180.066 174.794C180.459 173.997 180.655 173.112 180.655 172.14ZM182.308 172.096C182.308 173.613 181.938 174.867 181.2 175.857C180.462 176.848 179.316 177.343 177.764 177.343C176.469 177.343 175.44 176.906 174.679 176.033C173.917 175.154 173.536 173.977 173.536 172.5C173.536 170.918 173.938 169.658 174.74 168.721C175.543 167.783 176.621 167.314 177.975 167.314C179.188 167.314 180.213 167.719 181.051 168.527C181.889 169.336 182.308 170.525 182.308 172.096ZM185.779 167.587V173.836C185.779 174.316 185.855 174.709 186.008 175.014C186.289 175.576 186.813 175.857 187.581 175.857C188.683 175.857 189.433 175.365 189.831 174.381C190.048 173.854 190.156 173.13 190.156 172.21V167.587H191.738V177H190.244L190.262 175.611C190.057 175.969 189.802 176.271 189.497 176.517C188.894 177.009 188.161 177.255 187.3 177.255C185.958 177.255 185.044 176.807 184.558 175.91C184.294 175.43 184.162 174.788 184.162 173.985V167.587H185.779ZM194.217 167.587H195.72V168.923C196.165 168.372 196.637 167.977 197.135 167.736C197.633 167.496 198.187 167.376 198.796 167.376C200.132 167.376 201.034 167.842 201.503 168.773C201.761 169.283 201.89 170.013 201.89 170.962V177H200.281V171.067C200.281 170.493 200.196 170.03 200.026 169.679C199.745 169.093 199.235 168.8 198.497 168.8C198.122 168.8 197.814 168.838 197.574 168.914C197.141 169.043 196.76 169.301 196.432 169.688C196.168 169.998 195.995 170.32 195.913 170.654C195.837 170.982 195.799 171.454 195.799 172.069V177H194.217V167.587ZM204.553 164.959H206.152V167.587H207.655V168.879H206.152V175.022C206.152 175.351 206.264 175.57 206.486 175.682C206.609 175.746 206.814 175.778 207.102 175.778C207.178 175.778 207.26 175.778 207.348 175.778C207.436 175.772 207.538 175.764 207.655 175.752V177C207.474 177.053 207.283 177.091 207.084 177.114C206.891 177.138 206.68 177.149 206.451 177.149C205.713 177.149 205.212 176.962 204.948 176.587C204.685 176.206 204.553 175.714 204.553 175.11V168.879H203.278V167.587H204.553V164.959ZM212.146 175.972C212.703 175.972 213.242 175.843 213.764 175.585C214.643 175.157 215.082 174.457 215.082 173.484V172.21C214.889 172.333 214.64 172.436 214.335 172.518C214.03 172.6 213.731 172.658 213.438 172.693L212.48 172.816C211.906 172.893 211.476 173.013 211.188 173.177C210.702 173.452 210.459 173.892 210.459 174.495C210.459 174.952 210.626 175.312 210.96 175.576C211.294 175.84 211.689 175.972 212.146 175.972ZM214.291 171.296C214.654 171.249 214.897 171.097 215.021 170.839C215.091 170.698 215.126 170.496 215.126 170.232C215.126 169.693 214.933 169.304 214.546 169.063C214.165 168.817 213.617 168.694 212.902 168.694C212.076 168.694 211.49 168.917 211.145 169.362C210.951 169.608 210.825 169.975 210.767 170.461H209.29C209.319 169.301 209.694 168.495 210.415 168.044C211.142 167.587 211.982 167.358 212.938 167.358C214.045 167.358 214.944 167.569 215.636 167.991C216.321 168.413 216.664 169.069 216.664 169.96V175.383C216.664 175.547 216.696 175.679 216.761 175.778C216.831 175.878 216.975 175.928 217.191 175.928C217.262 175.928 217.341 175.925 217.429 175.919C217.517 175.907 217.61 175.893 217.71 175.875V177.044C217.464 177.114 217.276 177.158 217.147 177.176C217.019 177.193 216.843 177.202 216.62 177.202C216.075 177.202 215.68 177.009 215.434 176.622C215.305 176.417 215.214 176.127 215.161 175.752C214.839 176.174 214.376 176.54 213.772 176.851C213.169 177.161 212.504 177.316 211.777 177.316C210.904 177.316 210.189 177.053 209.633 176.525C209.082 175.992 208.807 175.327 208.807 174.53C208.807 173.657 209.079 172.98 209.624 172.5C210.169 172.02 210.884 171.724 211.769 171.612L214.291 171.296ZM219.266 167.631H220.874V177H219.266V167.631ZM220.057 165.987C219.863 165.987 219.682 165.964 219.512 165.917C219.348 165.87 219.207 165.803 219.09 165.715C218.973 165.627 218.879 165.524 218.809 165.407C218.744 165.29 218.712 165.161 218.712 165.021C218.712 164.874 218.747 164.736 218.817 164.607C218.888 164.479 218.981 164.367 219.099 164.273C219.222 164.18 219.365 164.106 219.529 164.054C219.693 164.001 219.869 163.975 220.057 163.975C220.244 163.975 220.417 164.001 220.575 164.054C220.739 164.106 220.88 164.18 220.997 164.273C221.12 164.367 221.217 164.479 221.287 164.607C221.357 164.736 221.393 164.874 221.393 165.021C221.393 165.161 221.357 165.29 221.287 165.407C221.223 165.524 221.132 165.627 221.015 165.715C220.897 165.803 220.757 165.87 220.593 165.917C220.429 165.964 220.25 165.987 220.057 165.987ZM219.266 167.631H220.874V177H219.266V167.631ZM223.273 167.587H224.776V168.923C225.222 168.372 225.693 167.977 226.191 167.736C226.689 167.496 227.243 167.376 227.853 167.376C229.188 167.376 230.091 167.842 230.56 168.773C230.817 169.283 230.946 170.013 230.946 170.962V177H229.338V171.067C229.338 170.493 229.253 170.03 229.083 169.679C228.802 169.093 228.292 168.8 227.554 168.8C227.179 168.8 226.871 168.838 226.631 168.914C226.197 169.043 225.816 169.301 225.488 169.688C225.225 169.998 225.052 170.32 224.97 170.654C224.894 170.982 224.855 171.454 224.855 172.069V177H223.273V167.587Z" fill="#B22C1B"/>
<path d="M2.57812 162.18H6.15234V183H2.57812V162.18ZM4.33594 158.527C3.90625 158.527 3.5026 158.475 3.125 158.371C2.76042 158.267 2.44792 158.117 2.1875 157.922C1.92708 157.727 1.71875 157.499 1.5625 157.238C1.41927 156.978 1.34766 156.691 1.34766 156.379C1.34766 156.053 1.42578 155.747 1.58203 155.461C1.73828 155.174 1.94661 154.927 2.20703 154.719C2.48047 154.51 2.79948 154.348 3.16406 154.23C3.52865 154.113 3.91927 154.055 4.33594 154.055C4.7526 154.055 5.13672 154.113 5.48828 154.23C5.85286 154.348 6.16536 154.51 6.42578 154.719C6.69922 154.927 6.91406 155.174 7.07031 155.461C7.22656 155.747 7.30469 156.053 7.30469 156.379C7.30469 156.691 7.22656 156.978 7.07031 157.238C6.92708 157.499 6.72526 157.727 6.46484 157.922C6.20443 158.117 5.89193 158.267 5.52734 158.371C5.16276 158.475 4.76562 158.527 4.33594 158.527ZM2.57812 162.18H6.15234V183H2.57812V162.18ZM27.9688 169.113H24.5508C24.3424 167.824 23.8672 166.757 23.125 165.91C22.3828 165.051 21.1914 164.621 19.5508 164.621C17.3112 164.621 15.7096 165.715 14.7461 167.902C14.1211 169.322 13.8086 171.073 13.8086 173.156C13.8086 175.253 14.2513 177.017 15.1367 178.449C16.0221 179.882 17.4154 180.598 19.3164 180.598C20.7747 180.598 21.9271 180.155 22.7734 179.27C23.6328 178.371 24.2253 177.147 24.5508 175.598H27.9688C27.5781 178.371 26.6016 180.402 25.0391 181.691C23.4766 182.967 21.4779 183.605 19.043 183.605C16.3086 183.605 14.1276 182.609 12.5 180.617C10.8724 178.612 10.0586 176.112 10.0586 173.117C10.0586 169.445 10.9505 166.587 12.7344 164.543C14.5182 162.499 16.7904 161.477 19.5508 161.477C21.9076 161.477 23.8216 162.049 25.293 163.195C26.7773 164.341 27.6693 166.314 27.9688 169.113ZM46.0352 172.414C46.0352 170.747 45.7943 169.315 45.3125 168.117C44.401 165.812 42.7344 164.66 40.3125 164.66C37.8776 164.66 36.2109 165.878 35.3125 168.312C34.8307 169.615 34.5898 171.268 34.5898 173.273C34.5898 174.888 34.8307 176.262 35.3125 177.395C36.224 179.556 37.8906 180.637 40.3125 180.637C41.9531 180.637 43.3138 179.953 44.3945 178.586C45.4883 177.206 46.0352 175.148 46.0352 172.414ZM31.2109 162.18H34.6289V164.953C35.332 164.003 36.1003 163.267 36.9336 162.746C38.1185 161.965 39.5117 161.574 41.1133 161.574C43.4831 161.574 45.4948 162.486 47.1484 164.309C48.8021 166.118 49.6289 168.71 49.6289 172.082C49.6289 176.639 48.4375 179.895 46.0547 181.848C44.5443 183.085 42.7865 183.703 40.7812 183.703C39.2057 183.703 37.8841 183.358 36.8164 182.668C36.1914 182.277 35.4948 181.607 34.7266 180.656V191.34H31.2109V162.18ZM70.2344 169.113H66.8164C66.6081 167.824 66.1328 166.757 65.3906 165.91C64.6484 165.051 63.457 164.621 61.8164 164.621C59.5768 164.621 57.9753 165.715 57.0117 167.902C56.3867 169.322 56.0742 171.073 56.0742 173.156C56.0742 175.253 56.5169 177.017 57.4023 178.449C58.2878 179.882 59.681 180.598 61.582 180.598C63.0404 180.598 64.1927 180.155 65.0391 179.27C65.8984 178.371 66.4909 177.147 66.8164 175.598H70.2344C69.8438 178.371 68.8672 180.402 67.3047 181.691C65.7422 182.967 63.7435 183.605 61.3086 183.605C58.5742 183.605 56.3932 182.609 54.7656 180.617C53.138 178.612 52.3242 176.112 52.3242 173.117C52.3242 169.445 53.2161 166.587 55 164.543C56.7839 162.499 59.056 161.477 61.8164 161.477C64.1732 161.477 66.0872 162.049 67.5586 163.195C69.043 164.341 69.9349 166.314 70.2344 169.113Z" fill="#4C83C3"/>
<path d="M92 149H90V199H92V149Z" fill="#FDBA12"/>
<path d="M42.5239 143.337C41.7569 143.193 40.9675 143.219 40.2119 143.415C39.4564 143.611 38.7532 143.97 38.1525 144.469C37.5518 144.967 37.0683 145.591 36.7364 146.298C36.4046 147.004 36.2325 147.775 36.2325 148.556C36.2325 149.336 36.4046 150.107 36.7364 150.813C37.0683 151.52 37.5518 152.144 38.1525 152.643C38.7532 153.141 39.4564 153.501 40.2119 153.696C40.9675 153.892 41.7569 153.918 42.5239 153.774C43.2911 153.919 44.0807 153.892 44.8365 153.697C45.5923 153.501 46.2957 153.142 46.8966 152.643C47.4975 152.145 47.9812 151.52 48.3132 150.814C48.6451 150.107 48.8173 149.336 48.8173 148.556C48.8173 147.775 48.6451 147.004 48.3132 146.297C47.9812 145.591 47.4975 144.966 46.8966 144.468C46.2957 143.969 45.5923 143.61 44.8365 143.414C44.0807 143.219 43.2911 143.192 42.5239 143.337ZM42.5239 151.766C40.1615 151.766 38.2412 150.324 38.2412 148.556C38.2412 146.787 40.1615 145.342 42.5239 145.342C44.8864 145.342 46.8096 146.784 46.8096 148.556C46.8096 150.327 44.8864 151.766 42.5239 151.766Z" fill="#4C83C3"/>
<path d="M33.9661 152.489C33.7423 151.241 33.0357 150.131 31.9993 149.4C30.963 148.67 29.6804 148.377 28.4295 148.585C27.1626 148.633 25.9654 149.177 25.0974 150.102C24.2294 151.026 23.7606 152.255 23.7925 153.522C23.9086 154.122 24.1451 154.693 24.4877 155.199C24.8303 155.705 25.272 156.137 25.786 156.468C26.3 156.799 26.8758 157.022 27.4785 157.124C28.0812 157.226 28.6983 157.205 29.2927 157.063C32.2397 156.766 34.2054 154.84 33.9661 152.489ZM29.108 155.254C27.5542 155.412 25.8157 154.876 25.6582 153.334C25.7395 152.58 26.0773 151.877 26.6152 151.342C27.1531 150.807 27.8584 150.473 28.6131 150.396C29.3677 150.319 30.1259 150.504 30.7607 150.919C31.3956 151.334 31.8685 151.955 32.1004 152.677C32.2579 154.225 30.6587 155.097 29.108 155.254Z" fill="#4C83C3"/>
<path d="M15.6538 152.498C12.8915 152.498 11.1772 153.797 11.1772 155.887C11.1772 157.977 12.8915 159.276 15.6538 159.276C18.416 159.276 20.1273 157.98 20.1273 155.887C20.1273 153.794 18.413 152.498 15.6538 152.498ZM15.6507 157.477C14.412 157.477 12.9309 157.205 12.9309 155.887C12.9309 154.576 14.412 154.3 15.6507 154.3C16.8956 154.3 18.3766 154.576 18.3766 155.887C18.3766 157.205 16.8956 157.477 15.6507 157.477Z" fill="#4C83C3"/>
<path d="M3.88089 154.307C0.946004 154.307 0.631012 156.176 0.631012 156.985C0.631012 157.793 0.946004 159.662 3.88089 159.662C6.09795 159.662 7.53359 158.611 7.53359 156.985C7.53359 155.358 6.09795 154.307 3.88089 154.307ZM3.88089 158.054C2.23929 158.054 2.23929 157.333 2.23929 156.985C2.23929 156.636 2.23929 155.916 3.88089 155.916C4.08684 155.916 5.92228 155.946 5.92228 156.985C5.92228 158.024 4.08684 158.054 3.88089 158.054Z" fill="#4C83C3"/>
<path d="M81.0612 114.594C80.7559 112.633 79.9941 110.771 78.8372 109.159C77.6803 107.546 76.1607 106.228 74.4009 105.311C74.3433 105.271 74.2949 105.235 74.2404 105.195L74.2161 105.177L74.0041 105.041V108.046C74.101 108.106 74.2495 108.209 74.4009 108.318C75.4789 109.013 76.4037 109.92 77.1188 110.985C77.8338 112.049 78.3241 113.248 78.5594 114.509C78.5504 116.066 78.168 117.597 77.4444 118.975C76.7208 120.354 75.6771 121.538 74.4009 122.429C74.3645 122.466 74.3312 122.499 74.2919 122.532L74.0041 122.787L73.8042 122.959L74.0041 123.038L74.4009 123.195L74.4039 123.199C74.4494 123.217 78.8047 125.055 76.73 131.497C75.6204 134.57 73.5492 137.202 70.8242 139.003C68.0991 140.804 64.8657 141.678 61.6043 141.495H61.5013C55.3848 141.328 49.4222 139.541 44.2222 136.316L43.9526 136.168L43.7376 136.389C41.0199 139.166 37.396 140.876 33.5245 141.208C33.4549 141.223 28.6967 141.571 25.6013 135.326L25.4438 135.011L25.1136 135.126C25.0743 135.138 21.5003 136.322 19.5982 134.532C19.4704 134.412 19.3528 134.281 19.2469 134.141H18.7199V134.135H16.8875V134.141H16.4765L16.5037 134.241L16.5552 134.375C16.5734 134.423 16.5916 134.469 16.6188 134.532C17.0186 135.489 18.7208 138.536 24.1696 137.849C25.1314 139.503 26.4895 140.892 28.1216 141.891C29.7538 142.889 31.6087 143.467 33.5194 143.57H33.5224C37.5402 143.5 41.3869 141.932 44.3079 139.172C49.4291 141.878 55.0561 143.491 60.8329 143.909C61.4704 143.909 62.1074 143.874 62.741 143.803C66.1302 143.719 69.4262 142.676 72.2477 140.796C75.0692 138.917 77.3008 136.276 78.6845 133.181C79.4978 131.504 79.8137 129.629 79.5947 127.777C79.3757 125.926 78.631 124.176 77.4487 122.735C78.5826 121.703 79.4893 120.446 80.1114 119.044C80.7334 117.643 81.0563 116.127 81.0612 114.594Z" fill="#4C83C3"/>
<path d="M73.7672 108.124L73.4553 107.952C69.285 104.145 63.9645 101.838 58.3356 101.394C57.5232 101.394 56.7123 101.466 55.9126 101.609C54.2121 101.941 52.594 102.606 51.1515 103.565C49.709 104.525 48.4706 105.76 47.5078 107.201L46.6052 108.727L46.3387 106.973C45.639 102.406 43.3432 102.103 43.2978 102.097C43.1323 102.064 42.9638 102.047 42.795 102.049C40.2963 102.049 36.9858 105.368 36.9495 105.404L36.1711 106.192L35.8894 105.126C34.1297 98.5837 29.7016 98.4474 29.535 98.4443C26.4448 98.4411 23.4671 99.6038 21.1968 101.7C20.3506 102.774 19.9404 104.128 20.0482 105.491C20.156 106.854 20.7738 108.126 21.7783 109.054L22.4053 109.711L21.5693 110.075C13.1615 113.725 13.643 116.811 13.6521 116.862C13.9429 119.079 18.8344 121.33 21.851 122.223L22.7112 122.484L22.1812 123.208C17.3533 129.783 18.798 133.036 19.1433 133.618L19.2493 133.902H63.6087C66.3077 133.894 68.8931 132.815 70.7976 130.903C72.7021 128.99 73.7701 126.4 73.7672 123.701V108.124Z" fill="#4C83C3"/>
<path d="M63.6103 75.3105H10.1585C7.46333 75.3147 4.87993 76.3881 2.97536 78.2951C1.0708 80.2021 0.000718867 82.7869 0 85.4821L0 123.732C0.000797891 126.428 1.07084 129.013 2.97532 130.92C4.87981 132.827 7.46316 133.901 10.1585 133.906H16.1191L16.0767 133.806C15.719 132.131 15.7067 130.4 16.0405 128.719C16.3743 127.039 17.0472 125.444 18.0182 124.032C13.2994 122.079 10.8491 119.744 10.734 117.096C10.5583 113.008 15.9738 109.676 17.9546 108.598C17.4337 107.605 17.1254 106.515 17.0493 105.397C16.9731 104.279 17.1309 103.158 17.5124 102.104C18.6391 99.7306 20.6488 97.8915 23.1126 96.9793C24.8959 96.1077 26.8465 95.6314 28.8309 95.583C30.0255 95.5767 31.2098 95.8041 32.317 96.2524C34.5896 97.2481 36.4392 99.012 37.5417 101.235C39.095 100.094 40.9452 99.4256 42.8693 99.3115C43.4407 99.3111 44.0087 99.3989 44.5533 99.5719C45.995 100.09 47.1838 101.14 47.8758 102.507C50.6385 100.012 54.2395 98.6496 57.9617 98.6906C63.6777 99.0868 69.1546 101.139 73.7234 104.597L73.7688 104.63V85.4821C73.7672 82.7872 72.6969 80.2031 70.7925 78.2964C68.8881 76.3897 66.3052 75.3154 63.6103 75.3105Z" fill="#4C83C3"/>
<path d="M166.172 56.7669L149.361 65.1708L150.435 67.3194L167.246 58.9155L166.172 56.7669Z" fill="#FDBA12"/>
<path d="M158.607 44.8315L143.519 58.2384L145.115 60.0348L160.203 46.6278L158.607 44.8315Z" fill="#FDBA12"/>
<path d="M144.072 35.0901L136.106 53.5269L138.313 54.4804L146.279 36.0436L144.072 35.0901Z" fill="#FDBA12"/>
<path d="M129.312 31.3525H126.908V51.9755H129.312V31.3525Z" fill="#FDBA12"/>
<path d="M112.152 35.0898L109.941 36.0438L117.749 54.1135L117.912 54.48L120.117 53.5259L112.309 35.4532L112.152 35.0898Z" fill="#FDBA12"/>
<path d="M96.0205 46.6292L111.107 60.0346L112.706 58.2385L97.6136 44.8302L96.0205 46.6292Z" fill="#FDBA12"/>
<path d="M90.0439 56.7751L88.9721 58.9249L105.792 67.311L106.864 65.1613L90.0439 56.7751Z" fill="#FDBA12"/>
<path d="M154.836 75.3124H151.183L151.168 75.7062C151.15 78.7235 150.534 81.7072 149.355 84.4849C148.176 87.2625 146.459 89.7791 144.302 91.8889C142.522 93.7016 140.358 95.0916 137.969 95.9566L136.264 107.769H119.639L118.182 96.0505C105.676 91.2559 105.2 78.1171 105.061 75.5275L105.049 75.3124H101.384C98.6851 75.322 96.0999 76.4016 94.1956 78.3145C92.2913 80.2273 91.2233 82.8172 91.2257 85.5164V123.876C91.2278 126.319 92.1088 128.679 93.7076 130.526C95.3063 132.372 97.5162 133.582 99.9334 133.934H156.29C158.707 133.582 160.916 132.372 162.514 130.525C164.113 128.679 164.993 126.318 164.995 123.876V85.5164C164.997 82.8171 163.93 80.2269 162.025 78.3139C160.121 76.401 157.535 75.3216 154.836 75.3124ZM119.829 110.558H136.357V112.996H119.829V110.558ZM119.829 115.229H136.357V117.664H119.829V115.229ZM131.224 127.002H124.715V124.563H131.224V127.002ZM136.403 122.334H119.875V119.896H136.403V122.334Z" fill="#FDBA12"/>
<path d="M119.582 87.3029L129.056 83.4261L120.918 80.9425L126.636 75.7027L127.018 75.312H108.163V75.7027C108.294 78.05 108.669 89.6714 120.336 94.0389L120.56 94.1207L121.938 105H126.863V92.1453L129.474 90.0009L119.582 87.3029Z" fill="#FDBA12"/>
<path d="M130.484 75.3105L130.151 75.7043L125.92 79.7507L136.817 82.8068L127.074 86.8108L134.724 88.9552L129.403 93.2954V105.002H133.892L135.445 94.0465L135.651 93.9587C139.287 92.4641 142.406 89.9404 144.627 86.6976C146.848 83.4548 148.074 79.634 148.154 75.7043V75.3105H130.484Z" fill="#FDBA12"/>
<path d="M245.902 75.3117H225.567C234.529 81.9992 239.593 88.9472 240.626 95.9679C240.962 98.9876 240.671 102.044 239.772 104.946C238.873 107.849 237.385 110.534 235.401 112.835L235.228 113.059C227.432 123 211.522 130.511 205.041 133.276C204.308 133.501 203.571 133.72 202.83 133.934H245.902C248.594 133.925 251.173 132.849 253.073 130.941C254.973 129.033 256.039 126.449 256.036 123.757V85.4884C256.039 82.7958 254.973 80.2122 253.073 78.3043C251.173 76.3964 248.594 75.3202 245.902 75.3117Z" fill="#B22C1B"/>
<path d="M220.993 75.671L220.523 75.3105H192.586C189.893 75.3198 187.314 76.3967 185.414 78.3051C183.514 80.2134 182.449 82.7974 182.451 85.4903V123.753C182.448 126.446 183.513 129.031 185.413 130.94C187.313 132.849 189.892 133.926 192.586 133.936H192.734L193.891 133.551C219.887 124.952 236.56 111.919 237.399 99.5377C238.257 87.0743 222.761 76.8007 220.993 75.671Z" fill="#B22C1B"/>
<path d="M243.015 27.6285C243.292 26.0249 243.433 24.4007 243.436 22.7733C243.532 19.1182 242.676 15.5008 240.953 12.2757C239.23 9.05067 236.699 6.32868 233.607 4.37657C229.233 1.59254 224.172 0.0783679 218.987 0.00296078C213.803 -0.0724464 208.7 1.29387 204.246 3.94951C201.014 6.06361 198.392 8.98793 196.642 12.431C194.892 15.8741 194.075 19.7157 194.273 23.5729C194.282 25.4681 194.438 27.3596 194.739 29.2307C196.151 38.3698 201.072 46.5976 208.456 52.1646C204.579 51.1136 199.515 50.6108 197.323 54.1666C197.054 54.5053 196.859 54.8957 196.749 55.3134C196.639 55.7311 196.616 56.167 196.683 56.5938C196.749 57.0206 196.903 57.4292 197.134 57.7938C197.366 58.1584 197.67 58.4713 198.028 58.7128C200.848 60.736 207.702 60.1999 211.842 57.8314L209.001 64.4493H228.071L224.257 56.8198C228.87 58.7491 234.219 60.4907 237.109 58.7279C237.695 58.3621 238.178 57.8514 238.51 57.2451C238.842 56.6388 239.012 55.9573 239.005 55.266C239.091 54.5304 238.98 53.7849 238.683 53.1066C238.385 52.4282 237.912 51.8416 237.311 51.4074C235.129 50.2734 232.601 50.001 230.227 50.6441C230.563 50.3685 230.884 50.0929 231.205 49.8112C237.578 43.9972 241.75 36.1619 243.015 27.6285ZM199.434 56.7592C199.158 56.5624 198.819 56.317 199.37 55.4266C201.021 52.737 206.542 53.7698 211.031 55.5538C209.303 56.5895 207.369 57.2341 205.366 57.4424C203.362 57.6507 201.337 57.4175 199.434 56.7592ZM235.927 53.37C236.195 53.5705 236.401 53.8426 236.521 54.155C236.641 54.4675 236.671 54.8075 236.606 55.1358C236.623 55.4353 236.564 55.7343 236.433 56.0042C236.302 56.2741 236.104 56.5059 235.858 56.6775C234.767 57.3438 231.978 57.474 224.915 54.4937C229.222 53.0581 234.11 52.0889 235.927 53.37ZM221.886 53.0248C221.598 53.1399 221.38 53.2247 221.277 53.2671L220.438 53.5578L220.035 53.7547L220.05 53.7789L218.66 54.3544L220.814 55.3175L224.182 62.0475H212.651L215.971 54.3029L214.762 53.5851C210.123 51.09 206.118 47.5621 203.059 43.2737C199.999 38.9852 197.966 34.0511 197.117 28.8521C196.836 27.1174 196.691 25.3635 196.683 23.6063C196.493 20.1481 197.212 16.7005 198.767 13.6062C200.323 10.512 202.662 7.8792 205.552 5.96971C209.609 3.55694 214.256 2.3179 218.976 2.39063C223.696 2.46336 228.303 3.84499 232.284 6.38162C235.039 8.12784 237.294 10.5596 238.827 13.4387C240.36 16.3179 241.12 19.5459 241.031 22.8067C241.026 24.2889 240.896 25.7681 240.643 27.2287C239.909 32.7493 237.809 37.9996 234.534 42.5039C231.258 47.0083 226.911 50.6244 221.886 53.0248Z" fill="#B22C1B"/>
<path d="M224.547 74.8385L224.383 74.7234C224.38 74.7204 224.353 74.7083 224.307 74.678C222.502 73.5532 220.952 72.0614 219.76 70.2994C218.568 68.5374 217.759 66.5444 217.387 64.4498H214.796C215.209 68.4073 217.105 72.0617 220.103 74.678C220.166 74.7325 220.236 74.784 220.306 74.8385C220.405 74.9172 220.502 74.999 220.602 75.0747H224.47L224.885 75.0717L224.547 74.8385Z" fill="#B22C1B"/>
<path d="M19.1875 58.4492H21.1914V60.2305C21.7852 59.4961 22.4141 58.9688 23.0781 58.6484C23.7422 58.3281 24.4805 58.168 25.293 58.168C27.0742 58.168 28.2773 58.7891 28.9023 60.0312C29.2461 60.7109 29.418 61.6836 29.418 62.9492V71H27.2734V63.0898C27.2734 62.3242 27.1602 61.707 26.9336 61.2383C26.5586 60.457 25.8789 60.0664 24.8945 60.0664C24.3945 60.0664 23.9844 60.1172 23.6641 60.2188C23.0859 60.3906 22.5781 60.7344 22.1406 61.25C21.7891 61.6641 21.5586 62.0938 21.4492 62.5391C21.3477 62.9766 21.2969 63.6055 21.2969 64.4258V71H19.1875V58.4492ZM36.4141 69.6289C37.1562 69.6289 37.875 69.457 38.5703 69.1133C39.7422 68.543 40.3281 67.6094 40.3281 66.3125V64.6133C40.0703 64.7773 39.7383 64.9141 39.332 65.0234C38.9258 65.1328 38.5273 65.2109 38.1367 65.2578L36.8594 65.4219C36.0938 65.5234 35.5195 65.6836 35.1367 65.9023C34.4883 66.2695 34.1641 66.8555 34.1641 67.6602C34.1641 68.2695 34.3867 68.75 34.832 69.1016C35.2773 69.4531 35.8047 69.6289 36.4141 69.6289ZM39.2734 63.3945C39.7578 63.332 40.082 63.1289 40.2461 62.7852C40.3398 62.5977 40.3867 62.3281 40.3867 61.9766C40.3867 61.2578 40.1289 60.7383 39.6133 60.418C39.1055 60.0898 38.375 59.9258 37.4219 59.9258C36.3203 59.9258 35.5391 60.2227 35.0781 60.8164C34.8203 61.1445 34.6523 61.6328 34.5742 62.2812H32.6055C32.6445 60.7344 33.1445 59.6602 34.1055 59.0586C35.0742 58.4492 36.1953 58.1445 37.4688 58.1445C38.9453 58.1445 40.1445 58.4258 41.0664 58.9883C41.9805 59.5508 42.4375 60.4258 42.4375 61.6133V68.8438C42.4375 69.0625 42.4805 69.2383 42.5664 69.3711C42.6602 69.5039 42.8516 69.5703 43.1406 69.5703C43.2344 69.5703 43.3398 69.5664 43.457 69.5586C43.5742 69.543 43.6992 69.5234 43.832 69.5V71.0586C43.5039 71.1523 43.2539 71.2109 43.082 71.2344C42.9102 71.2578 42.6758 71.2695 42.3789 71.2695C41.6523 71.2695 41.125 71.0117 40.7969 70.4961C40.625 70.2227 40.5039 69.8359 40.4336 69.3359C40.0039 69.8984 39.3867 70.3867 38.582 70.8008C37.7773 71.2148 36.8906 71.4219 35.9219 71.4219C34.7578 71.4219 33.8047 71.0703 33.0625 70.3672C32.3281 69.6562 31.9609 68.7695 31.9609 67.707C31.9609 66.543 32.3242 65.6406 33.0508 65C33.7773 64.3594 34.7305 63.9648 35.9102 63.8164L39.2734 63.3945ZM55.7969 62.668H53.7461C53.6211 61.8945 53.3359 61.2539 52.8906 60.7461C52.4453 60.2305 51.7305 59.9727 50.7461 59.9727C49.4023 59.9727 48.4414 60.6289 47.8633 61.9414C47.4883 62.793 47.3008 63.8438 47.3008 65.0938C47.3008 66.3516 47.5664 67.4102 48.0977 68.2695C48.6289 69.1289 49.4648 69.5586 50.6055 69.5586C51.4805 69.5586 52.1719 69.293 52.6797 68.7617C53.1953 68.2227 53.5508 67.4883 53.7461 66.5586H55.7969C55.5625 68.2227 54.9766 69.4414 54.0391 70.2148C53.1016 70.9805 51.9023 71.3633 50.4414 71.3633C48.8008 71.3633 47.4922 70.7656 46.5156 69.5703C45.5391 68.3672 45.0508 66.8672 45.0508 65.0703C45.0508 62.8672 45.5859 61.1523 46.6562 59.9258C47.7266 58.6992 49.0898 58.0859 50.7461 58.0859C52.1602 58.0859 53.3086 58.4297 54.1914 59.1172C55.082 59.8047 55.6172 60.9883 55.7969 62.668Z" fill="#4C83C3"/>
</svg>
