<?xml version="1.0" encoding="UTF-8" standalone="no"?>
<!-- Created with Inkscape (http://www.inkscape.org/) -->

<svg
   xmlns:dc="http://purl.org/dc/elements/1.1/"
   xmlns:cc="http://creativecommons.org/ns#"
   xmlns:rdf="http://www.w3.org/1999/02/22-rdf-syntax-ns#"
   xmlns:svg="http://www.w3.org/2000/svg"
   xmlns="http://www.w3.org/2000/svg"
   xmlns:sodipodi="http://sodipodi.sourceforge.net/DTD/sodipodi-0.dtd"
   xmlns:inkscape="http://www.inkscape.org/namespaces/inkscape"
   version="1.1"
   id="svg834"
   xml:space="preserve"
   width="399.99854"
   height="249.39015"
   viewBox="0 0 399.99853 249.39015"
   sodipodi:docname="think-create-solve-white.svg"
   inkscape:version="0.92.2 5c3e80d, 2017-08-06"><metadata
     id="metadata840"><rdf:RDF><cc:Work
         rdf:about=""><dc:format>image/svg+xml</dc:format><dc:type
           rdf:resource="http://purl.org/dc/dcmitype/StillImage" /><dc:title></dc:title></cc:Work></rdf:RDF></metadata><defs
     id="defs838"><clipPath
       clipPathUnits="userSpaceOnUse"
       id="clipPath850"><path
         d="M 0,0 H 340 V 340 H 0 Z"
         id="path848"
         inkscape:connector-curvature="0" /></clipPath><clipPath
       id="clipPath850-8"
       clipPathUnits="userSpaceOnUse"><path
         inkscape:connector-curvature="0"
         id="path848-0"
         d="M 0,0 H 340 V 340 H 0 Z" /></clipPath></defs><sodipodi:namedview
     pagecolor="#ffffff"
     bordercolor="#666666"
     borderopacity="1"
     objecttolerance="10"
     gridtolerance="10"
     guidetolerance="10"
     inkscape:pageopacity="0"
     inkscape:pageshadow="2"
     inkscape:window-width="1565"
     inkscape:window-height="821"
     id="namedview836"
     showgrid="false"
     inkscape:zoom="0.94742645"
     inkscape:cx="156.42711"
     inkscape:cy="70.491609"
     inkscape:window-x="570"
     inkscape:window-y="120"
     inkscape:window-maximized="0"
     inkscape:current-layer="g842"
     inkscape:pagecheckerboard="true"
     fit-margin-top="0"
     fit-margin-left="0"
     fit-margin-right="0"
     fit-margin-bottom="0" /><g
     id="g842"
     inkscape:groupmode="layer"
     inkscape:label="icpc-nac-2020-north-america-championship"
     transform="matrix(1.3333333,0,0,-1.3333333,-34.583586,107.43761)"><path
       inkscape:connector-curvature="0"
       id="path962-9"
       style="fill:#ffffff;fill-opacity:1;fill-rule:nonzero;stroke:none"
       d="m 314.03659,-7.86411 -23.88,0.003 c 10.523,-7.855 16.47,-16.017 17.683,-24.261 0.966,-6.593 -1.1,-13.256 -6.135,-19.806 l -0.202,-0.264 c -9.154,-11.672 -27.841,-20.491 -35.45,-23.74 -0.862,-0.264 -1.726,-0.519 -2.599,-0.775 h 50.583 c 6.562,0 11.9,5.364 11.9,11.955 v 44.937 c 0,6.59 -5.338,11.951 -11.9,11.951" /><path
       inkscape:connector-curvature="0"
       id="path966-1"
       style="fill:#ffffff;fill-opacity:1;fill-rule:nonzero;stroke:none"
       d="m 284.78369,-8.28451 -0.552,0.422 h -32.807 c -6.561,0 -11.899,-5.362 -11.899,-11.953 v -44.935 c 0,-6.594 5.338,-11.955 11.899,-11.955 h 0.176 l 1.36,0.45 c 30.525,10.1 50.105,25.404 51.094,39.943 1.002,14.635 -17.191,26.701 -19.271,28.028" /><path
       inkscape:connector-curvature="0"
       id="path970-7"
       style="fill:#ffffff;fill-opacity:1;fill-rule:nonzero;stroke:none"
       d="m 285.83349,18.30879 c -0.339,-0.134 -0.593,-0.235 -0.714,-0.284 l -0.986,-0.342 -0.474,-0.231 0.017,-0.03 -1.629,-0.675 2.524,-1.13 3.957,-7.905 h -13.54 l 3.9,9.095 -1.418,0.843 c -11.793,6.999 -18.77,16.771 -20.725,29.047 -0.336,2.115 -0.509,4.185 -0.509,6.16 0,9.153 3.603,16.314 10.414,20.708 8.977,5.789 22.185,5.591 31.394,-0.482 6.722,-4.433 10.27,-11.102 10.27,-19.29 0,-1.669 -0.153,-3.416 -0.453,-5.192 -3.633,-21.387 -18.969,-28.979 -22.028,-30.292 m 16.49,-0.404 c 0.406,-0.287 0.862,-0.783 0.796,-2.076 -0.053,-0.9 -0.333,-1.474 -0.881,-1.81 -1.276,-0.782 -4.555,-0.935 -12.847,2.566 5.057,1.685 10.797,2.822 12.932,1.32 m -42.855,-3.983 c -0.323,0.231 -0.722,0.521 -0.075,1.564 1.938,3.162 8.421,1.949 13.692,-0.147 -4.055,-2.695 -11.52,-2.926 -13.617,-1.417 m 51.177,34.209 c 0.331,1.929 0.497,3.849 0.497,5.704 0,9.156 -3.992,16.627 -11.542,21.604 -10.103,6.657 -24.605,6.872 -34.482,0.499 -7.663,-4.941 -11.711,-12.911 -11.711,-23.045 0,-2.115 0.187,-4.348 0.547,-6.64 1.734,-10.864 7.15,-19.912 16.109,-26.934 -4.552,1.236 -10.501,1.826 -13.078,-2.353 -1.266,-2.057 -0.958,-4.052 0.832,-5.336 3.313,-2.376 11.361,-1.747 16.22,1.034 l -3.335,-7.771 h 6.811 0.467 2.093 0.478 12.546 l -4.48,8.96 c 5.417,-2.265 11.698,-4.312 15.092,-2.242 1.38,0.841 2.129,2.21 2.227,4.068 0.126,2.496 -1.01,3.842 -1.99,4.53 -1.708,1.209 -4.501,1.513 -8.318,0.896 0.394,0.323 0.772,0.646 1.147,0.978 5.077,4.521 11.601,12.71 13.87,26.048" /><path
       inkscape:connector-curvature="0"
       id="path974-8"
       style="fill:#fffffa;fill-opacity:1;fill-rule:nonzero;stroke:none"
       d="m 288.95849,-7.30701 -0.193,0.135 c -0.003,0.003 -0.036,0.019 -0.088,0.052 -0.803,0.466 -6.829,4.237 -8.126,12.012 h -0.477 -2.093 -0.471 c 0.155,-1.659 1.071,-7.651 6.227,-12.012 0.076,-0.064 0.159,-0.125 0.241,-0.188 0.117,-0.093 0.231,-0.187 0.349,-0.278 h 0.457 l 4.084,0.003 h 0.486 z" /><path
       d="m 185.78899,-63.08071 h -19.408 v 2.862 h 19.408 z m -6.082,-5.483 h -7.643 v 2.862 h 7.643 z m -13.379,13.828 h 19.408 v -2.862 h -19.408 z m 0,5.483 h 19.408 v -2.861 h -19.408 z m 41.107,41.387 h -4.289 l -0.018,-0.461 c -0.354,-9.674 -4.571,-15.671 -8.064,-19.005 -3.371,-3.22 -6.677,-4.637 -7.435,-4.775 l -2.002,-13.872 h -19.523 l -1.713,13.76 c -14.685,5.63 -15.245,21.063 -15.408,24.102 l -0.011,0.254 -4.304,-0.003 c -6.578,0 -11.931,-5.375 -11.931,-11.981 v -45.047 c 0,-6.022 4.458,-10.972 10.223,-11.813 h 66.183 c 5.767,0.841 10.223,5.791 10.223,11.813 v 45.047 c 0,6.606 -5.351,11.981 -11.931,11.981"
       style="fill:#fffffb;fill-opacity:1;fill-rule:nonzero;stroke:none"
       id="path976-3"
       inkscape:connector-curvature="0" /><path
       inkscape:connector-curvature="0"
       id="path980-1"
       style="fill:#fffff7;fill-opacity:1;fill-rule:nonzero;stroke:none"
       d="m 166.03609,-21.94371 11.125,4.554 -9.557,2.913 6.715,6.155 0.446,0.459 h -22.138 v -0.459 c 0.153,-2.759 0.596,-16.403 14.293,-21.533 l 0.263,-0.097 0.037,-0.278 1.584,-12.497 h 5.783 v 15.094 l 3.063,2.52 z" /><path
       inkscape:connector-curvature="0"
       id="path984-3"
       style="fill:#ffffff;fill-opacity:1;fill-rule:nonzero;stroke:none"
       d="m 178.83839,-7.86071 -0.392,-0.462 -4.965,-4.751 12.795,-3.59 -11.445,-4.703 8.987,-2.519 -6.251,-5.097 v -13.745 h 5.27 l 1.825,12.865 0.245,0.104 c 13.677,5.708 14.632,18.803 14.681,21.436 v 0.462 z" /><path
       inkscape:connector-curvature="0"
       id="path988-4"
       style="fill:#fffffa;fill-opacity:1;fill-rule:nonzero;stroke:none"
       d="m 220.74849,13.91569 -19.742,-9.87 1.262,-2.523 19.743,9.867 z" /><path
       inkscape:connector-curvature="0"
       id="path992-6"
       style="fill:#ffffff;fill-opacity:1;fill-rule:nonzero;stroke:none"
       d="m 211.86569,27.93129 -17.722,-15.744 1.877,-2.109 17.716,15.741 z" /><path
       inkscape:connector-curvature="0"
       id="path996-9"
       style="fill:#fffffe;fill-opacity:1;fill-rule:nonzero;stroke:none"
       d="m 194.79439,39.37029 -9.354,-21.65 2.59,-1.121 9.357,21.65 z" /><path
       d="m 174.63899,19.54229 h 2.823 v 24.219 h -2.823 z"
       style="fill:#ffffff;fill-opacity:1;fill-rule:nonzero;stroke:none"
       id="path998-5"
       inkscape:connector-curvature="0" /><path
       inkscape:connector-curvature="0"
       id="path1002-9"
       style="fill:#ffffff;fill-opacity:1;fill-rule:nonzero;stroke:none"
       d="m 157.49609,38.94209 -0.186,0.427 -2.594,-1.121 9.169,-21.22 0.189,-0.43 2.591,1.121 z" /><path
       inkscape:connector-curvature="0"
       id="path1006-7"
       style="fill:#fffff1;fill-opacity:1;fill-rule:nonzero;stroke:none"
       d="m 140.23829,27.93129 -1.872,-2.112 17.716,-15.741 1.878,2.109 z" /><path
       inkscape:connector-curvature="0"
       id="path1010-5"
       style="fill:#fffffb;fill-opacity:1;fill-rule:nonzero;stroke:none"
       d="m 131.35449,13.91569 -1.261,-2.526 19.743,-9.867 1.262,2.523 z" /><path
       inkscape:connector-curvature="0"
       id="path1014-1"
       style="fill:#fffffc;fill-opacity:1;fill-rule:nonzero;stroke:none"
       d="m 75.872993,-97.64631 c -2.773,0 -5.029,1.692 -5.029,3.771 0,2.081 2.256,3.772 5.029,3.772 2.774,0 5.033,-1.691 5.033,-3.772 0,-2.079 -2.259,-3.771 -5.033,-3.771 m 0,9.899 c -4.074,0 -7.386,-2.747 -7.386,-6.128 0,-3.379 3.312,-6.126 7.386,-6.126 4.075,0 7.39,2.747 7.39,6.126 0,3.381 -3.315,6.128 -7.39,6.128" /><path
       inkscape:connector-curvature="0"
       id="path1018-8"
       style="fill:#ffffff;fill-opacity:1;fill-rule:nonzero;stroke:none"
       d="m 61.259793,-101.74101 c -1.823,-0.187 -3.867,0.44 -4.052,2.255 -0.172,1.689 1.385,3.238 3.472,3.451 2.084,0.211 3.921,-0.992 4.093,-2.683 0.183,-1.813 -1.693,-2.838 -3.513,-3.023 m 5.705,3.247 c -0.291,2.862 -3.208,4.919 -6.501,4.584 -3.296,-0.335 -5.737,-2.935 -5.446,-5.799 0.28,-2.761 2.996,-4.511 6.458,-4.157 3.46,0.351 5.77,2.611 5.489,5.372" /><path
       inkscape:connector-curvature="0"
       id="path1022-5"
       style="fill:#ffffff;fill-opacity:1;fill-rule:nonzero;stroke:none"
       d="m 47.734393,-104.35241 c -1.455,0 -3.195,0.32 -3.195,1.866 0,1.542 1.74,1.863 3.195,1.863 1.459,0 3.2,-0.321 3.2,-1.863 0,-1.546 -1.741,-1.866 -3.2,-1.866 m 0.004,5.846 c -3.244,0 -5.256,-1.526 -5.256,-3.98 0,-2.454 2.012,-3.978 5.256,-3.978 3.24,0 5.252,1.524 5.252,3.978 0,2.454 -2.012,3.98 -5.252,3.98" /><path
       inkscape:connector-curvature="0"
       id="path1026-2"
       style="fill:#ffffff;fill-opacity:1;fill-rule:nonzero;stroke:none"
       d="m 121.13079,-53.99351 c -0.231,3.931 -2.869,7.598 -7.823,10.903 -0.066,0.043 -0.122,0.088 -0.187,0.133 -0.01,0.007 -0.018,0.014 -0.028,0.021 l -0.248,0.163 v -0.431 -0.127 -2.422 -0.551 c 0.11,-0.071 0.287,-0.192 0.463,-0.319 1.408,-0.997 4.524,-3.592 4.885,-7.269 0.3,-3.038 -1.349,-6.167 -4.885,-9.303 -0.043,-0.042 -0.082,-0.081 -0.127,-0.12 l -0.336,-0.297 -0.235,-0.205 0.235,-0.092 0.463,-0.185 0.007,-0.003 c 0.051,-0.023 5.166,-2.181 2.731,-9.747 -0.036,-0.117 -3.53,-11.741 -17.765,-11.741 h -0.121 c -0.078,-0.012 -8.755,-0.45 -20.291,6.083 l -0.316,0.176 -0.251,-0.261 c -0.055,-0.059 -5.632,-5.789 -11.995,-5.658 -0.081,-0.017 -5.668,-0.428 -9.303,6.906 l -0.186,0.368 -0.387,-0.133 c -0.046,-0.013 -4.244,-1.405 -6.477,0.694 -0.147,0.137 -0.284,0.294 -0.414,0.463 h -0.616 l -0.004,0.007 h -2.151 v -0.007 h -0.181 -0.301 l 0.032,-0.117 c 0,-0.004 0.025,-0.071 0.059,-0.159 0.022,-0.055 0.044,-0.112 0.075,-0.187 0.469,-1.121 2.471,-4.7 8.866,-3.892 0.802,-1.319 4.489,-6.718 10.982,-6.718 h 0.003 c 0.231,-0.018 5.747,-0.482 12.667,5.164 1.766,-0.913 11.177,-5.561 19.404,-5.561 0.759,0 1.509,0.039 2.239,0.124 0.205,-0.004 13.163,-0.101 18.726,12.471 0.036,0.073 3.423,6.949 -1.453,12.269 1.147,1.095 4.53,4.749 4.244,9.56" /><path
       inkscape:connector-curvature="0"
       id="path1030-6"
       style="fill:#ffffff;fill-opacity:1;fill-rule:nonzero;stroke:none"
       d="m 112.56539,-46.39481 -0.367,0.202 c -6.446,5.111 -12.419,7.702 -17.754,7.702 -0.967,0 -1.923,-0.086 -2.846,-0.255 -6.645,-1.217 -9.838,-6.508 -9.87,-6.564 l -1.061,-1.793 -0.312,2.059 c -0.821,5.364 -3.518,5.719 -3.572,5.727 -0.186,0.038 -0.385,0.057 -0.59,0.057 -2.934,0 -6.821,-3.898 -6.863,-3.941 l -0.915,-0.926 -0.333,1.254 c -2.064,7.681 -7.264,7.842 -7.458,7.845 -7.039,-0.571 -9.761,-3.783 -9.796,-3.825 -3.515,-3.959 0.245,-8.17 0.684,-8.635 l 0.739,-0.771 -0.983,-0.426 c -9.876,-4.285 -9.307,-7.912 -9.296,-7.971 0.337,-2.604 6.084,-5.246 9.627,-6.298 l 1.01,-0.302 -0.624,-0.852 c -5.668,-7.724 -3.973,-11.541 -3.567,-12.223 l 0.123,-0.337 h 52.095 c 6.578,0 11.929,5.374 11.929,11.981 v 1.076 z" /><path
       inkscape:connector-curvature="0"
       id="path1034-8"
       style="fill:#fcfcfc;fill-opacity:1;fill-rule:nonzero;stroke:none"
       d="m 100.63669,-7.86071 h -62.77 c -6.577,0 -11.929,-5.359 -11.929,-11.947 v -44.916 c 0,-6.588 5.352,-11.947 11.929,-11.947 h 6.999 l -0.049,0.115 c -1.565,4.485 1.144,9.62 2.281,11.479 -5.541,2.295 -8.418,5.035 -8.555,8.147 -0.206,4.802 6.155,8.714 8.482,9.979 -1.261,2.765 -1.438,5.329 -0.523,7.626 1.683,4.249 6.381,5.947 6.58,6.018 2.352,1.085 4.617,1.64 6.711,1.64 1.441,0 2.82,-0.264 4.098,-0.786 3.498,-1.421 5.381,-4.378 6.134,-5.85 2.28,1.497 4.384,2.256 6.256,2.256 0.688,0 1.351,-0.103 1.975,-0.305 2.103,-0.685 3.306,-2.335 3.904,-3.446 3.362,2.975 7.344,4.482 11.845,4.482 8.394,0 16.288,-5.308 18.509,-6.936 l 0.054,-0.038 v 22.482 c 0,6.588 -5.353,11.947 -11.931,11.947" /><text
       xml:space="preserve"
       style="font-style:normal;font-variant:normal;font-weight:normal;font-stretch:normal;font-size:12px;line-height:1;font-family:'Roboto ICPC';-inkscape-font-specification:'Roboto ICPC';letter-spacing:0px;word-spacing:0px;fill:#000000;fill-opacity:1;stroke:none;stroke-width:0.75"
       x="372.45636"
       y="-101.72293"
       id="text1913"
       transform="scale(1,-1)"><tspan
         sodipodi:role="line"
         id="tspan1911"
         x="372.45636"
         y="-92.222931"
         style="font-style:normal;font-variant:normal;font-weight:normal;font-stretch:normal;font-family:'Roboto ICPC';-inkscape-font-specification:'Roboto ICPC';stroke-width:0.75" /></text>
<text
       xml:space="preserve"
       style="font-style:normal;font-variant:normal;font-weight:normal;font-stretch:normal;font-size:19.35526466px;line-height:1;font-family:Roboto;-inkscape-font-specification:Roboto;letter-spacing:0px;word-spacing:0px;fill:#ffffff;fill-opacity:1;stroke:none;stroke-width:1.20970404"
       x="27.5016"
       y="26.212944"
       id="text1917"
       transform="scale(1,-1)"><tspan
         sodipodi:role="line"
         id="tspan1915"
         x="27.5016"
         y="26.212944"
         style="fill:#ffffff;fill-opacity:1;stroke-width:1.20970404">na.icpc.io</tspan></text>
</g></svg>